<?xml version="1.0" encoding="UTF-8" standalone="no"?>
<!DOCTYPE svg PUBLIC "-//W3C//DTD SVG 1.1//EN"
 "http://www.w3.org/Graphics/SVG/1.1/DTD/svg11.dtd">
<!-- Generated by graphviz version 2.44.0 (0)
 -->
<!-- Pages: 1 -->
<svg width="703pt" height="273pt"
 viewBox="0.00 0.00 703.00 273.00" xmlns="http://www.w3.org/2000/svg" xmlns:xlink="http://www.w3.org/1999/xlink">
<g id="graph0" class="graph" transform="scale(1 1) rotate(0) translate(4 269)">
<polygon fill="white" stroke="transparent" points="-4,4 -4,-269 699,-269 699,4 -4,4"/>
<g id="clust1" class="cluster">
<title>cluster_default</title>
<polygon fill="none" stroke="black" points="8,-8 8,-257 687,-257 687,-8 8,-8"/>
<text text-anchor="middle" x="347.5" y="-241.8" font-family="Times-Roman" font-size="14.00">default</text>
</g>
<!-- default/new&#45;virtual&#45;machine[Pod] -->
<g id="node1" class="node">
<title>default/new&#45;virtual&#45;machine[Pod]</title>
<ellipse fill="none" stroke="blue" cx="296" cy="-208" rx="126.18" ry="18"/>
<text text-anchor="middle" x="296" y="-204.3" font-family="Times-Roman" font-size="14.00" fill="blue">new&#45;virtual&#45;machine[Pod]</text>
</g>
<!-- default/new&#45;vm&#45;4[Pod] -->
<g id="node5" class="node">
<title>default/new&#45;vm&#45;4[Pod]</title>
<ellipse fill="none" stroke="blue" cx="296" cy="-121" rx="79.09" ry="18"/>
<text text-anchor="middle" x="296" y="-117.3" font-family="Times-Roman" font-size="14.00" fill="blue">new&#45;vm&#45;4[Pod]</text>
</g>
<!-- default/new&#45;virtual&#45;machine[Pod]&#45;&gt;default/new&#45;vm&#45;4[Pod] -->
<g id="edge1" class="edge">
<title>default/new&#45;virtual&#45;machine[Pod]&#45;&gt;default/new&#45;vm&#45;4[Pod]</title>
<path fill="none" stroke="#eec900" d="M246.07,-191.36C237.69,-186.49 230.08,-180.17 225,-172 216.88,-158.94 226.5,-148.35 241.01,-140.34"/>
<polygon fill="#eec900" stroke="#eec900" points="242.58,-143.47 250.02,-135.92 239.5,-137.18 242.58,-143.47"/>
<text text-anchor="middle" x="249.5" y="-160.8" font-family="Times-Roman" font-size="14.00" fill="darkgreen">TCP 80</text>
</g>
<!-- default/new&#45;vm&#45;1[Pod] -->
<g id="node2" class="node">
<title>default/new&#45;vm&#45;1[Pod]</title>
<ellipse fill="none" stroke="blue" cx="95" cy="-34" rx="79.09" ry="18"/>
<text text-anchor="middle" x="95" y="-30.3" font-family="Times-Roman" font-size="14.00" fill="blue">new&#45;vm&#45;1[Pod]</text>
</g>
<!-- default/new&#45;vm&#45;1[Pod]&#45;&gt;default/new&#45;vm&#45;4[Pod] -->
<g id="edge2" class="edge">
<title>default/new&#45;vm&#45;1[Pod]&#45;&gt;default/new&#45;vm&#45;4[Pod]</title>
<path fill="none" stroke="#eec900" d="M118.14,-51.37C134.1,-62.08 156.11,-75.75 177,-85 194.69,-92.83 214.63,-99.48 233.05,-104.81"/>
<polygon fill="#eec900" stroke="#eec900" points="232.24,-108.21 242.81,-107.55 234.13,-101.48 232.24,-108.21"/>
<text text-anchor="middle" x="231" y="-73.8" font-family="Times-Roman" font-size="14.00" fill="darkgreen">All Connections</text>
</g>
<!-- default/new&#45;vm&#45;2[Pod] -->
<g id="node3" class="node">
<title>default/new&#45;vm&#45;2[Pod]</title>
<ellipse fill="none" stroke="blue" cx="284" cy="-34" rx="79.09" ry="18"/>
<text text-anchor="middle" x="284" y="-30.3" font-family="Times-Roman" font-size="14.00" fill="blue">new&#45;vm&#45;2[Pod]</text>
</g>
<!-- default/new&#45;vm&#45;2[Pod]&#45;&gt;default/new&#45;vm&#45;4[Pod] -->
<g id="edge3" class="edge">
<title>default/new&#45;vm&#45;2[Pod]&#45;&gt;default/new&#45;vm&#45;4[Pod]</title>
<path fill="none" stroke="#eec900" d="M324.23,-49.58C332.89,-54.67 340.95,-61.35 346,-70 352.06,-80.37 346.18,-90.12 336.61,-98.21"/>
<polygon fill="#eec900" stroke="#eec900" points="334.28,-95.57 328.29,-104.31 338.42,-101.21 334.28,-95.57"/>
<text text-anchor="middle" x="372.5" y="-73.8" font-family="Times-Roman" font-size="14.00" fill="darkgreen">TCP 80</text>
</g>
<!-- default/new&#45;vm&#45;3[Pod] -->
<g id="node4" class="node">
<title>default/new&#45;vm&#45;3[Pod]</title>
<ellipse fill="none" stroke="blue" cx="461" cy="-34" rx="79.09" ry="18"/>
<text text-anchor="middle" x="461" y="-30.3" font-family="Times-Roman" font-size="14.00" fill="blue">new&#45;vm&#45;3[Pod]</text>
</g>
<!-- default/new&#45;vm&#45;3[Pod]&#45;&gt;default/new&#45;vm&#45;4[Pod] -->
<g id="edge4" class="edge">
<title>default/new&#45;vm&#45;3[Pod]&#45;&gt;default/new&#45;vm&#45;4[Pod]</title>
<path fill="none" stroke="#eec900" d="M515.48,-47.09C541.43,-55.35 563.89,-67.91 549,-85 527.88,-109.24 449.53,-117.25 385.55,-119.64"/>
<polygon fill="#eec900" stroke="#eec900" points="385.29,-116.14 375.41,-119.97 385.52,-123.14 385.29,-116.14"/>
<text text-anchor="middle" x="607" y="-73.8" font-family="Times-Roman" font-size="14.00" fill="darkgreen">All Connections</text>
</g>
<!-- default/new&#45;vm&#45;4[Pod]&#45;&gt;default/new&#45;virtual&#45;machine[Pod] -->
<g id="edge5" class="edge">
<title>default/new&#45;vm&#45;4[Pod]&#45;&gt;default/new&#45;virtual&#45;machine[Pod]</title>
<path fill="none" stroke="#eec900" d="M296,-139.18C296,-150.81 296,-166.42 296,-179.73"/>
<polygon fill="#eec900" stroke="#eec900" points="292.5,-179.8 296,-189.8 299.5,-179.8 292.5,-179.8"/>
<text text-anchor="middle" x="320.5" y="-160.8" font-family="Times-Roman" font-size="14.00" fill="darkgreen">TCP 80</text>
</g>
<!-- default/new&#45;vm&#45;4[Pod]&#45;&gt;default/new&#45;vm&#45;1[Pod] -->
<g id="edge6" class="edge">
<title>default/new&#45;vm&#45;4[Pod]&#45;&gt;default/new&#45;vm&#45;1[Pod]</title>
<path fill="none" stroke="#eec900" d="M216.72,-120.35C149.07,-118.75 59.16,-111.49 36,-85 26.56,-74.2 35.27,-63.71 48.63,-55.15"/>
<polygon fill="#eec900" stroke="#eec900" points="50.51,-58.1 57.43,-50.08 47.02,-52.04 50.51,-58.1"/>
<text text-anchor="middle" x="90" y="-73.8" font-family="Times-Roman" font-size="14.00" fill="darkgreen">All Connections</text>
</g>
<!-- default/new&#45;vm&#45;4[Pod]&#45;&gt;default/new&#45;vm&#45;2[Pod] -->
<g id="edge7" class="edge">
<title>default/new&#45;vm&#45;4[Pod]&#45;&gt;default/new&#45;vm&#45;2[Pod]</title>
<path fill="none" stroke="#eec900" d="M293.57,-102.8C291.93,-91.16 289.72,-75.55 287.85,-62.24"/>
<polygon fill="#eec900" stroke="#eec900" points="291.29,-61.59 286.42,-52.18 284.36,-62.57 291.29,-61.59"/>
<text text-anchor="middle" x="314.5" y="-73.8" font-family="Times-Roman" font-size="14.00" fill="darkgreen">TCP 80</text>
</g>
<!-- default/new&#45;vm&#45;4[Pod]&#45;&gt;default/new&#45;vm&#45;3[Pod] -->
<g id="edge8" class="edge">
<title>default/new&#45;vm&#45;4[Pod]&#45;&gt;default/new&#45;vm&#45;3[Pod]</title>
<path fill="none" stroke="#eec900" d="M347.02,-107.18C364.72,-101.66 384.3,-94.3 401,-85 413.84,-77.85 426.56,-67.79 436.96,-58.57"/>
<polygon fill="#eec900" stroke="#eec900" points="439.41,-61.07 444.43,-51.74 434.69,-55.91 439.41,-61.07"/>
<text text-anchor="middle" x="476" y="-73.8" font-family="Times-Roman" font-size="14.00" fill="darkgreen">All Connections</text>
</g>
</g>
</svg>
