<?xml version="1.0" encoding="UTF-8" standalone="no"?>
<!DOCTYPE svg PUBLIC "-//W3C//DTD SVG 1.1//EN"
 "http://www.w3.org/Graphics/SVG/1.1/DTD/svg11.dtd">
<!-- Generated by graphviz version 2.43.0 (0)
 -->
<!-- Title: %3 Pages: 1 -->
<svg width="516pt" height="218pt"
 viewBox="0.00 0.00 515.50 218.00" xmlns="http://www.w3.org/2000/svg" xmlns:xlink="http://www.w3.org/1999/xlink">
<g id="graph0" class="graph" transform="scale(1 1) rotate(0) translate(4 214)">
<title>%3</title>
<polygon fill="white" stroke="transparent" points="-4,4 -4,-214 511.5,-214 511.5,4 -4,4"/>
<!-- node_3_ -->
<g id="node1" class="node">
<title>node_3_</title>
<g id="a_node1"><a xlink:title="Gryffindor&#45;DB">
<polygon fill="none" stroke="darkred" points="143,-210 0,-210 0,-174 143,-174 143,-210"/>
<text text-anchor="middle" x="71.5" y="-188.3" font-family="Times,serif" font-size="14.00" fill="darkgreen">vm:Gryffindor&#45;DB</text>
</a>
</g>
</g>
<!-- node_1_ -->
<g id="node3" class="node">
<title>node_1_</title>
<g id="a_node3"><a xlink:title="Gryffindor&#45;Web">
<polygon fill="none" stroke="darkred" points="359,-123 208,-123 208,-87 359,-87 359,-123"/>
<text text-anchor="middle" x="283.5" y="-101.3" font-family="Times,serif" font-size="14.00" fill="darkgreen">vm:Gryffindor&#45;Web</text>
</a>
</g>
</g>
<!-- node_3_&#45;&gt;node_1_ -->
<g id="edge5" class="edge">
<title>node_3_&#45;&gt;node_1_</title>
<g id="a_edge5"><a xlink:title="TCP dst&#45;ports: 80,443">
<path fill="none" stroke="darkblue" d="M84.83,-173.62C94.19,-162.62 107.66,-149.01 122.5,-141 129.75,-137.09 163.04,-129.62 197.49,-122.58"/>
<polygon fill="darkblue" stroke="darkblue" points="198.59,-125.93 207.7,-120.51 197.2,-119.07 198.59,-125.93"/>
</a>
</g>
<g id="a_edge5&#45;label"><a xlink:title="TCP dst&#45;ports: 80,443">
<text text-anchor="middle" x="201" y="-144.8" font-family="Times,serif" font-size="14.00" fill="purple">TCP dst&#45;ports: 80,443</text>
</a>
</g>
</g>
<!-- node_0_ -->
<g id="node2" class="node">
<title>node_0_</title>
<g id="a_node2"><a xlink:title="Dumbledore1">
<polygon fill="none" stroke="darkred" points="353.5,-210 213.5,-210 213.5,-174 353.5,-174 353.5,-210"/>
<text text-anchor="middle" x="283.5" y="-188.3" font-family="Times,serif" font-size="14.00" fill="darkgreen">vm:Dumbledore1</text>
</a>
</g>
</g>
<!-- node_0_&#45;&gt;node_1_ -->
<g id="edge1" class="edge">
<title>node_0_&#45;&gt;node_1_</title>
<g id="a_edge1"><a xlink:title="TCP dst&#45;ports: 80,443">
<path fill="none" stroke="darkblue" d="M283.5,-173.8C283.5,-162.16 283.5,-146.55 283.5,-133.24"/>
<polygon fill="darkblue" stroke="darkblue" points="287,-133.18 283.5,-123.18 280,-133.18 287,-133.18"/>
</a>
</g>
<g id="a_edge1&#45;label"><a xlink:title="TCP dst&#45;ports: 80,443">
<text text-anchor="middle" x="362" y="-144.8" font-family="Times,serif" font-size="14.00" fill="purple">TCP dst&#45;ports: 80,443</text>
</a>
</g>
</g>
<!-- node_2_ -->
<g id="node4" class="node">
<title>node_2_</title>
<g id="a_node4"><a xlink:title="Gryffindor&#45;App">
<polygon fill="none" stroke="darkred" points="178,-36 29,-36 29,0 178,0 178,-36"/>
<text text-anchor="middle" x="103.5" y="-14.3" font-family="Times,serif" font-size="14.00" fill="darkgreen">vm:Gryffindor&#45;App</text>
</a>
</g>
</g>
<!-- node_1_&#45;&gt;node_2_ -->
<g id="edge2" class="edge">
<title>node_1_&#45;&gt;node_2_</title>
<g id="a_edge2"><a xlink:title="TCP dst&#45;ports: 8443,9443,10443">
<path fill="none" stroke="darkblue" d="M280.1,-86.73C277.06,-75.78 271.47,-62.18 261.5,-54 249.64,-44.27 219.16,-36.47 188.09,-30.73"/>
<polygon fill="darkblue" stroke="darkblue" points="188.47,-27.24 178.01,-28.94 187.24,-34.13 188.47,-27.24"/>
</a>
</g>
<g id="a_edge2&#45;label"><a xlink:title="TCP dst&#45;ports: 8443,9443,10443">
<text text-anchor="middle" x="390.5" y="-57.8" font-family="Times,serif" font-size="14.00" fill="purple">TCP dst&#45;ports: 8443,9443,10443</text>
</a>
</g>
</g>
<!-- node_2_&#45;&gt;node_3_ -->
<g id="edge4" class="edge">
<title>node_2_&#45;&gt;node_3_</title>
<g id="a_edge4"><a xlink:title="TCP dst&#45;ports: 445">
<path fill="none" stroke="darkblue" d="M90.01,-36C80.52,-49.1 68.65,-68.1 63.5,-87 56.58,-112.41 60.1,-142.51 64.44,-163.78"/>
<polygon fill="darkblue" stroke="darkblue" points="61.07,-164.73 66.66,-173.73 67.9,-163.21 61.07,-164.73"/>
</a>
</g>
<g id="a_edge4&#45;label"><a xlink:title="TCP dst&#45;ports: 445">
<text text-anchor="middle" x="131" y="-101.3" font-family="Times,serif" font-size="14.00" fill="purple">TCP dst&#45;ports: 445</text>
</a>
</g>
</g>
<!-- node_2_&#45;&gt;node_1_ -->
<g id="edge3" class="edge">
<title>node_2_&#45;&gt;node_1_</title>
<g id="a_edge3"><a xlink:title="TCP dst&#45;ports: 80,443">
<path fill="none" stroke="darkblue" d="M97.05,-36.12C94.24,-46.74 93.07,-60.02 100.5,-69 100.71,-69.26 150.3,-78.73 197.8,-87.76"/>
<polygon fill="darkblue" stroke="darkblue" points="197.4,-91.25 207.88,-89.67 198.71,-84.37 197.4,-91.25"/>
</a>
</g>
<g id="a_edge3&#45;label"><a xlink:title="TCP dst&#45;ports: 80,443">
<text text-anchor="middle" x="179" y="-57.8" font-family="Times,serif" font-size="14.00" fill="purple">TCP dst&#45;ports: 80,443</text>
</a>
</g>
</g>
</g>
</svg>
