<?xml version="1.0" encoding="UTF-8" standalone="no"?>
<!DOCTYPE svg PUBLIC "-//W3C//DTD SVG 1.1//EN"
 "http://www.w3.org/Graphics/SVG/1.1/DTD/svg11.dtd">
<!-- Generated by graphviz version 2.43.0 (0)
 -->
<!-- Title: %3 Pages: 1 -->
<svg width="820pt" height="305pt"
 viewBox="0.00 0.00 819.50 305.00" xmlns="http://www.w3.org/2000/svg" xmlns:xlink="http://www.w3.org/1999/xlink">
<g id="graph0" class="graph" transform="scale(1 1) rotate(0) translate(4 301)">
<title>%3</title>
<polygon fill="white" stroke="transparent" points="-4,4 -4,-301 815.5,-301 815.5,4 -4,4"/>
<!-- node_2_ -->
<g id="node1" class="node">
<title>node_2_</title>
<g id="a_node1"><a xlink:title="New&#45;VM&#45;2">
<polygon fill="none" stroke="darkred" points="510,-297 391,-297 391,-261 510,-261 510,-297"/>
<text text-anchor="middle" x="450.5" y="-275.3" font-family="Times,serif" font-size="14.00" fill="darkgreen">VM:New&#45;VM&#45;2</text>
</a>
</g>
</g>
<!-- node_0_ -->
<g id="node4" class="node">
<title>node_0_</title>
<g id="a_node4"><a xlink:title="New&#45;VM&#45;1">
<polygon fill="none" stroke="darkred" points="277,-210 158,-210 158,-174 277,-174 277,-210"/>
<text text-anchor="middle" x="217.5" y="-188.3" font-family="Times,serif" font-size="14.00" fill="darkgreen">VM:New&#45;VM&#45;1</text>
</a>
</g>
</g>
<!-- node_2_&#45;&gt;node_0_ -->
<g id="edge5" class="edge">
<title>node_2_&#45;&gt;node_0_</title>
<g id="a_edge5"><a xlink:title="TCP dst&#45;ports: 443">
<path fill="none" stroke="darkblue" d="M390.98,-277.69C328.69,-275.96 236.85,-268.91 214.5,-243 209.15,-236.8 208.14,-228.39 209.01,-220.23"/>
<polygon fill="darkblue" stroke="darkblue" points="212.48,-220.71 210.92,-210.23 205.6,-219.4 212.48,-220.71"/>
</a>
</g>
<g id="a_edge5&#45;label"><a xlink:title="TCP dst&#45;ports: 443">
<text text-anchor="middle" x="282" y="-231.8" font-family="Times,serif" font-size="14.00" fill="purple">TCP dst&#45;ports: 443</text>
</a>
</g>
</g>
<!-- node_1_ -->
<g id="node5" class="node">
<title>node_1_</title>
<g id="a_node5"><a xlink:title="New Virtual Machine">
<polygon fill="none" stroke="darkred" points="548.5,-123 352.5,-123 352.5,-87 548.5,-87 548.5,-123"/>
<text text-anchor="middle" x="450.5" y="-101.3" font-family="Times,serif" font-size="14.00" fill="darkgreen">VM:New Virtual Machine</text>
</a>
</g>
</g>
<!-- node_2_&#45;&gt;node_1_ -->
<g id="edge4" class="edge">
<title>node_2_&#45;&gt;node_1_</title>
<g id="a_edge4"><a xlink:title="TCP dst&#45;ports: 443">
<path fill="none" stroke="darkblue" d="M493.84,-260.93C500.9,-256.19 507.28,-250.29 511.5,-243 534.22,-203.77 534.22,-180.23 511.5,-141 508.99,-136.67 505.73,-132.83 502.01,-129.44"/>
<polygon fill="darkblue" stroke="darkblue" points="503.88,-126.46 493.84,-123.07 499.58,-131.98 503.88,-126.46"/>
</a>
</g>
<g id="a_edge4&#45;label"><a xlink:title="TCP dst&#45;ports: 443">
<text text-anchor="middle" x="596" y="-188.3" font-family="Times,serif" font-size="14.00" fill="purple">TCP dst&#45;ports: 443</text>
</a>
</g>
</g>
<!-- node_3_ -->
<g id="node2" class="node">
<title>node_3_</title>
<g id="a_node2"><a xlink:title="New&#45;VM&#45;3">
<polygon fill="none" stroke="darkred" points="119,-123 0,-123 0,-87 119,-87 119,-123"/>
<text text-anchor="middle" x="59.5" y="-101.3" font-family="Times,serif" font-size="14.00" fill="darkgreen">VM:New&#45;VM&#45;3</text>
</a>
</g>
</g>
<!-- node_4_ -->
<g id="node3" class="node">
<title>node_4_</title>
<g id="a_node3"><a xlink:title="New&#45;VM&#45;4">
<polygon fill="none" stroke="darkred" points="119,-36 0,-36 0,0 119,0 119,-36"/>
<text text-anchor="middle" x="59.5" y="-14.3" font-family="Times,serif" font-size="14.00" fill="darkgreen">VM:New&#45;VM&#45;4</text>
</a>
</g>
</g>
<!-- node_3_&#45;&gt;node_4_ -->
<g id="edge6" class="edge">
<title>node_3_&#45;&gt;node_4_</title>
<g id="a_edge6"><a xlink:title="TCP dst&#45;ports: 80">
<path fill="none" stroke="darkblue" d="M59.5,-86.8C59.5,-75.16 59.5,-59.55 59.5,-46.24"/>
<polygon fill="darkblue" stroke="darkblue" points="63,-46.18 59.5,-36.18 56,-46.18 63,-46.18"/>
</a>
</g>
<g id="a_edge6&#45;label"><a xlink:title="TCP dst&#45;ports: 80">
<text text-anchor="middle" x="122.5" y="-57.8" font-family="Times,serif" font-size="14.00" fill="purple">TCP dst&#45;ports: 80</text>
</a>
</g>
</g>
<!-- node_0_&#45;&gt;node_2_ -->
<g id="edge2" class="edge">
<title>node_0_&#45;&gt;node_2_</title>
<g id="a_edge2"><a xlink:title="TCP dst&#45;ports: 443">
<path fill="none" stroke="darkblue" d="M277.15,-203.93C301.43,-209.5 329.4,-217.39 353.5,-228 364.67,-232.92 365.85,-237.04 376.5,-243 384.88,-247.68 393.99,-252.33 402.86,-256.64"/>
<polygon fill="darkblue" stroke="darkblue" points="401.44,-259.84 411.97,-260.99 404.45,-253.52 401.44,-259.84"/>
</a>
</g>
<g id="a_edge2&#45;label"><a xlink:title="TCP dst&#45;ports: 443">
<text text-anchor="middle" x="444" y="-231.8" font-family="Times,serif" font-size="14.00" fill="purple">TCP dst&#45;ports: 443</text>
</a>
</g>
</g>
<!-- node_0_&#45;&gt;node_3_ -->
<g id="edge3" class="edge">
<title>node_0_&#45;&gt;node_3_</title>
<g id="a_edge3"><a xlink:title="TCP dst&#45;ports: 445">
<path fill="none" stroke="darkblue" d="M157.63,-185.27C118.67,-180.18 72.88,-171.13 60.5,-156 55.32,-149.67 53.82,-141.23 53.99,-133.08"/>
<polygon fill="darkblue" stroke="darkblue" points="57.47,-133.4 54.95,-123.11 50.5,-132.73 57.47,-133.4"/>
</a>
</g>
<g id="a_edge3&#45;label"><a xlink:title="TCP dst&#45;ports: 445">
<text text-anchor="middle" x="128" y="-144.8" font-family="Times,serif" font-size="14.00" fill="purple">TCP dst&#45;ports: 445</text>
</a>
</g>
</g>
<!-- node_0_&#45;&gt;node_1_ -->
<g id="edge1" class="edge">
<title>node_0_&#45;&gt;node_1_</title>
<g id="a_edge1"><a xlink:title="TCP dst&#45;ports: 443">
<path fill="none" stroke="darkblue" d="M212.73,-173.71C210.91,-163.03 210.82,-149.74 218.5,-141 235.16,-122.02 290.12,-113.22 342.36,-109.18"/>
<polygon fill="darkblue" stroke="darkblue" points="342.7,-112.67 352.42,-108.46 342.2,-105.69 342.7,-112.67"/>
</a>
</g>
<g id="a_edge1&#45;label"><a xlink:title="TCP dst&#45;ports: 443">
<text text-anchor="middle" x="286" y="-144.8" font-family="Times,serif" font-size="14.00" fill="purple">TCP dst&#45;ports: 443</text>
</a>
</g>
</g>
<!-- node_1_&#45;&gt;node_2_ -->
<g id="edge8" class="edge">
<title>node_1_&#45;&gt;node_2_</title>
<g id="a_edge8"><a xlink:title="TCP dst&#45;ports: 443">
<path fill="none" stroke="darkblue" d="M548.55,-118.41C622.37,-132.02 704.91,-159.08 667.5,-210 634.04,-255.54 570.16,-271.42 520.33,-276.56"/>
<polygon fill="darkblue" stroke="darkblue" points="519.89,-273.09 510.25,-277.48 520.53,-280.06 519.89,-273.09"/>
</a>
</g>
<g id="a_edge8&#45;label"><a xlink:title="TCP dst&#45;ports: 443">
<text text-anchor="middle" x="744" y="-188.3" font-family="Times,serif" font-size="14.00" fill="purple">TCP dst&#45;ports: 443</text>
</a>
</g>
</g>
<!-- node_1_&#45;&gt;node_0_ -->
<g id="edge7" class="edge">
<title>node_1_&#45;&gt;node_0_</title>
<g id="a_edge7"><a xlink:title="TCP dst&#45;ports: 443">
<path fill="none" stroke="darkblue" d="M411.97,-123.01C400.4,-128.44 387.79,-134.69 376.5,-141 365.85,-146.96 364.67,-151.08 353.5,-156 332.6,-165.2 308.79,-172.36 287,-177.73"/>
<polygon fill="darkblue" stroke="darkblue" points="286.06,-174.36 277.15,-180.07 287.68,-181.17 286.06,-174.36"/>
</a>
</g>
<g id="a_edge7&#45;label"><a xlink:title="TCP dst&#45;ports: 443">
<text text-anchor="middle" x="444" y="-144.8" font-family="Times,serif" font-size="14.00" fill="purple">TCP dst&#45;ports: 443</text>
</a>
</g>
</g>
</g>
</svg>
