<?xml version="1.0" encoding="UTF-8" standalone="no"?>
<!DOCTYPE svg PUBLIC "-//W3C//DTD SVG 1.1//EN"
 "http://www.w3.org/Graphics/SVG/1.1/DTD/svg11.dtd">
<!-- Generated by graphviz version 2.43.0 (0)
 -->
<!-- Title: %3 Pages: 1 -->
<svg width="590pt" height="294pt"
 viewBox="0.00 0.00 590.00 294.00" xmlns="http://www.w3.org/2000/svg" xmlns:xlink="http://www.w3.org/1999/xlink">
<g id="graph0" class="graph" transform="scale(1 1) rotate(0) translate(4 290)">
<title>%3</title>
<polygon fill="white" stroke="transparent" points="-4,4 -4,-290 586,-290 586,4 -4,4"/>
<g id="clust1" class="cluster">
<title>cluster_T1_192_168_0_0</title>
<polygon fill="none" stroke="black" points="392,-8 392,-170 574,-170 574,-8 392,-8"/>
<text text-anchor="middle" x="483" y="-154.8" font-family="Times,serif" font-size="14.00">T1&#45;192&#45;168&#45;0&#45;0</text>
</g>
<g id="clust2" class="cluster">
<title>cluster_T1_192_168_1_0</title>
<polygon fill="none" stroke="black" points="8,-8 8,-278 384,-278 384,-8 8,-8"/>
<text text-anchor="middle" x="196" y="-262.8" font-family="Times,serif" font-size="14.00">T1&#45;192&#45;168&#45;1&#45;0</text>
</g>
<!-- T1&#45;192&#45;168&#45;0&#45;0/New&#45;VM&#45;3[Pod] -->
<g id="node1" class="node">
<title>T1&#45;192&#45;168&#45;0&#45;0/New&#45;VM&#45;3[Pod]</title>
<ellipse fill="none" stroke="blue" cx="483" cy="-121" rx="82.59" ry="18"/>
<text text-anchor="middle" x="483" y="-117.3" font-family="Times,serif" font-size="14.00" fill="blue">New&#45;VM&#45;3[Pod]</text>
</g>
<!-- T1&#45;192&#45;168&#45;0&#45;0/New&#45;VM&#45;4[Pod] -->
<g id="node2" class="node">
<title>T1&#45;192&#45;168&#45;0&#45;0/New&#45;VM&#45;4[Pod]</title>
<ellipse fill="none" stroke="blue" cx="483" cy="-34" rx="82.59" ry="18"/>
<text text-anchor="middle" x="483" y="-30.3" font-family="Times,serif" font-size="14.00" fill="blue">New&#45;VM&#45;4[Pod]</text>
</g>
<!-- T1&#45;192&#45;168&#45;0&#45;0/New&#45;VM&#45;3[Pod]&#45;&gt;T1&#45;192&#45;168&#45;0&#45;0/New&#45;VM&#45;4[Pod] -->
<g id="edge1" class="edge">
<title>T1&#45;192&#45;168&#45;0&#45;0/New&#45;VM&#45;3[Pod]&#45;&gt;T1&#45;192&#45;168&#45;0&#45;0/New&#45;VM&#45;4[Pod]</title>
<path fill="none" stroke="#eec900" d="M483,-102.8C483,-91.16 483,-75.55 483,-62.24"/>
<polygon fill="#eec900" stroke="#eec900" points="486.5,-62.18 483,-52.18 479.5,-62.18 486.5,-62.18"/>
<text text-anchor="middle" x="509" y="-73.8" font-family="Times,serif" font-size="14.00" fill="darkgreen">TCP 80</text>
</g>
<!-- T1&#45;192&#45;168&#45;1&#45;0/New&#45;VM&#45;1[Pod] -->
<g id="node3" class="node">
<title>T1&#45;192&#45;168&#45;1&#45;0/New&#45;VM&#45;1[Pod]</title>
<ellipse fill="none" stroke="blue" cx="293" cy="-229" rx="82.59" ry="18"/>
<text text-anchor="middle" x="293" y="-225.3" font-family="Times,serif" font-size="14.00" fill="blue">New&#45;VM&#45;1[Pod]</text>
</g>
<!-- T1&#45;192&#45;168&#45;1&#45;0/New&#45;VM&#45;1[Pod]&#45;&gt;T1&#45;192&#45;168&#45;0&#45;0/New&#45;VM&#45;3[Pod] -->
<g id="edge2" class="edge">
<title>T1&#45;192&#45;168&#45;1&#45;0/New&#45;VM&#45;1[Pod]&#45;&gt;T1&#45;192&#45;168&#45;0&#45;0/New&#45;VM&#45;3[Pod]</title>
<path fill="none" stroke="#eec900" d="M321.86,-211.9C354.97,-193.43 409.37,-163.08 445.68,-142.82"/>
<polygon fill="#eec900" stroke="#eec900" points="447.47,-145.83 454.49,-137.9 444.06,-139.72 447.47,-145.83"/>
<text text-anchor="middle" x="412.5" y="-181.8" font-family="Times,serif" font-size="14.00" fill="darkgreen">TCP 445</text>
</g>
<!-- T1&#45;192&#45;168&#45;1&#45;0/New&#45;VM&#45;2[Pod] -->
<g id="node4" class="node">
<title>T1&#45;192&#45;168&#45;1&#45;0/New&#45;VM&#45;2[Pod]</title>
<ellipse fill="none" stroke="blue" cx="196" cy="-121" rx="82.59" ry="18"/>
<text text-anchor="middle" x="196" y="-117.3" font-family="Times,serif" font-size="14.00" fill="blue">New&#45;VM&#45;2[Pod]</text>
</g>
<!-- T1&#45;192&#45;168&#45;1&#45;0/New&#45;VM&#45;1[Pod]&#45;&gt;T1&#45;192&#45;168&#45;1&#45;0/New&#45;VM&#45;2[Pod] -->
<g id="edge3" class="edge">
<title>T1&#45;192&#45;168&#45;1&#45;0/New&#45;VM&#45;1[Pod]&#45;&gt;T1&#45;192&#45;168&#45;1&#45;0/New&#45;VM&#45;2[Pod]</title>
<path fill="none" stroke="#eec900" d="M220.43,-220.21C185.77,-214.84 149.56,-206.23 139,-193 125.92,-176.61 141.71,-158.14 159.95,-144.14"/>
<polygon fill="#eec900" stroke="#eec900" points="162.34,-146.73 168.42,-138.05 158.26,-141.05 162.34,-146.73"/>
<text text-anchor="middle" x="169.5" y="-181.8" font-family="Times,serif" font-size="14.00" fill="darkgreen">TCP 443</text>
</g>
<!-- T1&#45;192&#45;168&#45;1&#45;0/NewVirtualMachine[Pod] -->
<g id="node5" class="node">
<title>T1&#45;192&#45;168&#45;1&#45;0/NewVirtualMachine[Pod]</title>
<ellipse fill="none" stroke="blue" cx="235" cy="-34" rx="126.98" ry="18"/>
<text text-anchor="middle" x="235" y="-30.3" font-family="Times,serif" font-size="14.00" fill="blue">NewVirtualMachine[Pod]</text>
</g>
<!-- T1&#45;192&#45;168&#45;1&#45;0/New&#45;VM&#45;1[Pod]&#45;&gt;T1&#45;192&#45;168&#45;1&#45;0/NewVirtualMachine[Pod] -->
<g id="edge4" class="edge">
<title>T1&#45;192&#45;168&#45;1&#45;0/New&#45;VM&#45;1[Pod]&#45;&gt;T1&#45;192&#45;168&#45;1&#45;0/NewVirtualMachine[Pod]</title>
<path fill="none" stroke="#eec900" d="M218.72,-221.03C153,-213.13 64.31,-197.59 43,-170 24.8,-146.43 26.67,-127.9 43,-103 61.76,-74.41 93.74,-57.71 126.28,-48.01"/>
<polygon fill="#eec900" stroke="#eec900" points="127.22,-51.38 135.92,-45.33 125.35,-44.63 127.22,-51.38"/>
<text text-anchor="middle" x="73.5" y="-117.3" font-family="Times,serif" font-size="14.00" fill="darkgreen">TCP 443</text>
</g>
<!-- T1&#45;192&#45;168&#45;1&#45;0/New&#45;VM&#45;2[Pod]&#45;&gt;T1&#45;192&#45;168&#45;1&#45;0/New&#45;VM&#45;1[Pod] -->
<g id="edge5" class="edge">
<title>T1&#45;192&#45;168&#45;1&#45;0/New&#45;VM&#45;2[Pod]&#45;&gt;T1&#45;192&#45;168&#45;1&#45;0/New&#45;VM&#45;1[Pod]</title>
<path fill="none" stroke="#eec900" d="M206.88,-139.03C216.88,-154.04 232.62,-176.11 249,-193 253.09,-197.22 257.69,-201.39 262.34,-205.3"/>
<polygon fill="#eec900" stroke="#eec900" points="260.14,-208.03 270.11,-211.6 264.55,-202.59 260.14,-208.03"/>
<text text-anchor="middle" x="279.5" y="-181.8" font-family="Times,serif" font-size="14.00" fill="darkgreen">TCP 443</text>
</g>
<!-- T1&#45;192&#45;168&#45;1&#45;0/New&#45;VM&#45;2[Pod]&#45;&gt;T1&#45;192&#45;168&#45;1&#45;0/NewVirtualMachine[Pod] -->
<g id="edge6" class="edge">
<title>T1&#45;192&#45;168&#45;1&#45;0/New&#45;VM&#45;2[Pod]&#45;&gt;T1&#45;192&#45;168&#45;1&#45;0/NewVirtualMachine[Pod]</title>
<path fill="none" stroke="#eec900" d="M150.66,-105.76C131.17,-97.16 115.09,-84.96 126,-70 131.13,-62.96 137.71,-57.3 145.07,-52.76"/>
<polygon fill="#eec900" stroke="#eec900" points="146.9,-55.75 154.05,-47.93 143.59,-49.59 146.9,-55.75"/>
<text text-anchor="middle" x="156.5" y="-73.8" font-family="Times,serif" font-size="14.00" fill="darkgreen">TCP 443</text>
</g>
<!-- T1&#45;192&#45;168&#45;1&#45;0/NewVirtualMachine[Pod]&#45;&gt;T1&#45;192&#45;168&#45;1&#45;0/New&#45;VM&#45;1[Pod] -->
<g id="edge7" class="edge">
<title>T1&#45;192&#45;168&#45;1&#45;0/NewVirtualMachine[Pod]&#45;&gt;T1&#45;192&#45;168&#45;1&#45;0/New&#45;VM&#45;1[Pod]</title>
<path fill="none" stroke="#eec900" d="M263.68,-51.57C270.53,-56.7 277.23,-62.91 282,-70 315.86,-120.33 319.8,-150.41 310,-193 309.33,-195.9 308.39,-198.84 307.29,-201.72"/>
<polygon fill="#eec900" stroke="#eec900" points="303.97,-200.57 303.1,-211.13 310.37,-203.42 303.97,-200.57"/>
<text text-anchor="middle" x="344.5" y="-117.3" font-family="Times,serif" font-size="14.00" fill="darkgreen">TCP 443</text>
</g>
<!-- T1&#45;192&#45;168&#45;1&#45;0/NewVirtualMachine[Pod]&#45;&gt;T1&#45;192&#45;168&#45;1&#45;0/New&#45;VM&#45;2[Pod] -->
<g id="edge8" class="edge">
<title>T1&#45;192&#45;168&#45;1&#45;0/NewVirtualMachine[Pod]&#45;&gt;T1&#45;192&#45;168&#45;1&#45;0/New&#45;VM&#45;2[Pod]</title>
<path fill="none" stroke="#eec900" d="M227.12,-52.18C221.68,-64.04 214.33,-80.04 208.15,-93.52"/>
<polygon fill="#eec900" stroke="#eec900" points="204.88,-92.25 203.89,-102.8 211.24,-95.17 204.88,-92.25"/>
<text text-anchor="middle" x="247.5" y="-73.8" font-family="Times,serif" font-size="14.00" fill="darkgreen">TCP 443</text>
</g>
</g>
</svg>
