<?xml version="1.0" encoding="UTF-8" standalone="no"?>
<!DOCTYPE svg PUBLIC "-//W3C//DTD SVG 1.1//EN"
 "http://www.w3.org/Graphics/SVG/1.1/DTD/svg11.dtd">
<!-- Generated by graphviz version 2.43.0 (0)
 -->
<!-- Title: %3 Pages: 1 -->
<svg width="802pt" height="273pt"
 viewBox="0.00 0.00 802.00 273.00" xmlns="http://www.w3.org/2000/svg" xmlns:xlink="http://www.w3.org/1999/xlink">
<g id="graph0" class="graph" transform="scale(1 1) rotate(0) translate(4 269)">
<title>%3</title>
<polygon fill="white" stroke="transparent" points="-4,4 -4,-269 798,-269 798,4 -4,4"/>
<g id="clust1" class="cluster">
<title>cluster_T1_192_168_0_0[udn]</title>
<polygon fill="none" stroke="black" points="8,-95 8,-257 296,-257 296,-95 8,-95"/>
<text text-anchor="middle" x="152" y="-241.8" font-family="Times,serif" font-size="14.00">T1&#45;192&#45;168&#45;0&#45;0[udn]</text>
</g>
<g id="clust2" class="cluster">
<title>cluster_T1_192_168_1_0[udn]</title>
<polygon fill="none" stroke="black" points="304,-8 304,-257 786,-257 786,-8 304,-8"/>
<text text-anchor="middle" x="545" y="-241.8" font-family="Times,serif" font-size="14.00">T1&#45;192&#45;168&#45;1&#45;0[udn]</text>
</g>
<!-- T1&#45;192&#45;168&#45;0&#45;0[udn]/New&#45;VM&#45;3[VirtualMachine] -->
<g id="node1" class="node">
<title>T1&#45;192&#45;168&#45;0&#45;0[udn]/New&#45;VM&#45;3[VirtualMachine]</title>
<ellipse fill="none" stroke="blue" cx="152" cy="-208" rx="136.48" ry="18"/>
<text text-anchor="middle" x="152" y="-204.3" font-family="Times,serif" font-size="14.00" fill="blue">New&#45;VM&#45;3[VirtualMachine]</text>
</g>
<!-- T1&#45;192&#45;168&#45;0&#45;0[udn]/New&#45;VM&#45;4[VirtualMachine] -->
<g id="node2" class="node">
<title>T1&#45;192&#45;168&#45;0&#45;0[udn]/New&#45;VM&#45;4[VirtualMachine]</title>
<ellipse fill="none" stroke="blue" cx="152" cy="-121" rx="136.48" ry="18"/>
<text text-anchor="middle" x="152" y="-117.3" font-family="Times,serif" font-size="14.00" fill="blue">New&#45;VM&#45;4[VirtualMachine]</text>
</g>
<!-- T1&#45;192&#45;168&#45;0&#45;0[udn]/New&#45;VM&#45;3[VirtualMachine]&#45;&gt;T1&#45;192&#45;168&#45;0&#45;0[udn]/New&#45;VM&#45;4[VirtualMachine] -->
<g id="edge1" class="edge">
<title>T1&#45;192&#45;168&#45;0&#45;0[udn]/New&#45;VM&#45;3[VirtualMachine]&#45;&gt;T1&#45;192&#45;168&#45;0&#45;0[udn]/New&#45;VM&#45;4[VirtualMachine]</title>
<path fill="none" stroke="#eec900" d="M152,-189.8C152,-178.16 152,-162.55 152,-149.24"/>
<polygon fill="#eec900" stroke="#eec900" points="155.5,-149.18 152,-139.18 148.5,-149.18 155.5,-149.18"/>
<text text-anchor="middle" x="178" y="-160.8" font-family="Times,serif" font-size="14.00" fill="darkgreen">TCP 80</text>
</g>
<!-- T1&#45;192&#45;168&#45;1&#45;0[udn]/New&#45;VM&#45;1[VirtualMachine] -->
<g id="node3" class="node">
<title>T1&#45;192&#45;168&#45;1&#45;0[udn]/New&#45;VM&#45;1[VirtualMachine]</title>
<ellipse fill="none" stroke="blue" cx="617" cy="-208" rx="136.48" ry="18"/>
<text text-anchor="middle" x="617" y="-204.3" font-family="Times,serif" font-size="14.00" fill="blue">New&#45;VM&#45;1[VirtualMachine]</text>
</g>
<!-- T1&#45;192&#45;168&#45;1&#45;0[udn]/New&#45;VM&#45;2[VirtualMachine] -->
<g id="node4" class="node">
<title>T1&#45;192&#45;168&#45;1&#45;0[udn]/New&#45;VM&#45;2[VirtualMachine]</title>
<ellipse fill="none" stroke="blue" cx="545" cy="-121" rx="136.48" ry="18"/>
<text text-anchor="middle" x="545" y="-117.3" font-family="Times,serif" font-size="14.00" fill="blue">New&#45;VM&#45;2[VirtualMachine]</text>
</g>
<!-- T1&#45;192&#45;168&#45;1&#45;0[udn]/New&#45;VM&#45;1[VirtualMachine]&#45;&gt;T1&#45;192&#45;168&#45;1&#45;0[udn]/New&#45;VM&#45;2[VirtualMachine] -->
<g id="edge2" class="edge">
<title>T1&#45;192&#45;168&#45;1&#45;0[udn]/New&#45;VM&#45;1[VirtualMachine]&#45;&gt;T1&#45;192&#45;168&#45;1&#45;0[udn]/New&#45;VM&#45;2[VirtualMachine]</title>
<path fill="none" stroke="#eec900" d="M535.16,-193.49C512.81,-188.05 492.85,-180.92 486,-172 477.96,-161.53 484.8,-151.73 496.27,-143.62"/>
<polygon fill="#eec900" stroke="#eec900" points="498.19,-146.55 504.83,-138.3 494.49,-140.61 498.19,-146.55"/>
<text text-anchor="middle" x="516.5" y="-160.8" font-family="Times,serif" font-size="14.00" fill="darkgreen">TCP 443</text>
</g>
<!-- T1&#45;192&#45;168&#45;1&#45;0[udn]/NewVirtualMachine[VirtualMachine] -->
<g id="node5" class="node">
<title>T1&#45;192&#45;168&#45;1&#45;0[udn]/NewVirtualMachine[VirtualMachine]</title>
<ellipse fill="none" stroke="blue" cx="571" cy="-34" rx="180.87" ry="18"/>
<text text-anchor="middle" x="571" y="-30.3" font-family="Times,serif" font-size="14.00" fill="blue">NewVirtualMachine[VirtualMachine]</text>
</g>
<!-- T1&#45;192&#45;168&#45;1&#45;0[udn]/New&#45;VM&#45;1[VirtualMachine]&#45;&gt;T1&#45;192&#45;168&#45;1&#45;0[udn]/NewVirtualMachine[VirtualMachine] -->
<g id="edge3" class="edge">
<title>T1&#45;192&#45;168&#45;1&#45;0[udn]/New&#45;VM&#45;1[VirtualMachine]&#45;&gt;T1&#45;192&#45;168&#45;1&#45;0[udn]/NewVirtualMachine[VirtualMachine]</title>
<path fill="none" stroke="#eec900" d="M517.34,-195.61C446.88,-185.26 361.16,-167.24 339,-139 300.92,-90.48 373.52,-63.95 447.33,-49.85"/>
<polygon fill="#eec900" stroke="#eec900" points="448.07,-53.27 457.27,-48.02 446.8,-46.39 448.07,-53.27"/>
<text text-anchor="middle" x="369.5" y="-117.3" font-family="Times,serif" font-size="14.00" fill="darkgreen">TCP 443</text>
</g>
<!-- T1&#45;192&#45;168&#45;1&#45;0[udn]/New&#45;VM&#45;2[VirtualMachine]&#45;&gt;T1&#45;192&#45;168&#45;1&#45;0[udn]/New&#45;VM&#45;1[VirtualMachine] -->
<g id="edge4" class="edge">
<title>T1&#45;192&#45;168&#45;1&#45;0[udn]/New&#45;VM&#45;2[VirtualMachine]&#45;&gt;T1&#45;192&#45;168&#45;1&#45;0[udn]/New&#45;VM&#45;1[VirtualMachine]</title>
<path fill="none" stroke="#eec900" d="M559.55,-139.18C569.99,-151.5 584.21,-168.29 595.89,-182.08"/>
<polygon fill="#eec900" stroke="#eec900" points="593.3,-184.43 602.43,-189.8 598.64,-179.91 593.3,-184.43"/>
<text text-anchor="middle" x="615.5" y="-160.8" font-family="Times,serif" font-size="14.00" fill="darkgreen">TCP 443</text>
</g>
<!-- T1&#45;192&#45;168&#45;1&#45;0[udn]/New&#45;VM&#45;2[VirtualMachine]&#45;&gt;T1&#45;192&#45;168&#45;1&#45;0[udn]/NewVirtualMachine[VirtualMachine] -->
<g id="edge5" class="edge">
<title>T1&#45;192&#45;168&#45;1&#45;0[udn]/New&#45;VM&#45;2[VirtualMachine]&#45;&gt;T1&#45;192&#45;168&#45;1&#45;0[udn]/NewVirtualMachine[VirtualMachine]</title>
<path fill="none" stroke="#eec900" d="M495.72,-104.01C478.28,-95.59 465.15,-84.07 475,-70 478.8,-64.56 483.55,-59.97 488.87,-56.08"/>
<polygon fill="#eec900" stroke="#eec900" points="491.07,-58.84 497.67,-50.55 487.34,-52.91 491.07,-58.84"/>
<text text-anchor="middle" x="505.5" y="-73.8" font-family="Times,serif" font-size="14.00" fill="darkgreen">TCP 443</text>
</g>
<!-- T1&#45;192&#45;168&#45;1&#45;0[udn]/NewVirtualMachine[VirtualMachine]&#45;&gt;T1&#45;192&#45;168&#45;1&#45;0[udn]/New&#45;VM&#45;1[VirtualMachine] -->
<g id="edge6" class="edge">
<title>T1&#45;192&#45;168&#45;1&#45;0[udn]/NewVirtualMachine[VirtualMachine]&#45;&gt;T1&#45;192&#45;168&#45;1&#45;0[udn]/New&#45;VM&#45;1[VirtualMachine]</title>
<path fill="none" stroke="#eec900" d="M632.13,-51.02C654.32,-60.11 677.08,-74.02 690,-95 700.25,-111.65 697.8,-121.07 690,-139 682.2,-156.92 667.09,-172.26 652.63,-183.8"/>
<polygon fill="#eec900" stroke="#eec900" points="650.11,-181.33 644.26,-190.16 654.34,-186.9 650.11,-181.33"/>
<text text-anchor="middle" x="726.5" y="-117.3" font-family="Times,serif" font-size="14.00" fill="darkgreen">TCP 443</text>
</g>
<!-- T1&#45;192&#45;168&#45;1&#45;0[udn]/NewVirtualMachine[VirtualMachine]&#45;&gt;T1&#45;192&#45;168&#45;1&#45;0[udn]/New&#45;VM&#45;2[VirtualMachine] -->
<g id="edge7" class="edge">
<title>T1&#45;192&#45;168&#45;1&#45;0[udn]/NewVirtualMachine[VirtualMachine]&#45;&gt;T1&#45;192&#45;168&#45;1&#45;0[udn]/New&#45;VM&#45;2[VirtualMachine]</title>
<path fill="none" stroke="#eec900" d="M565.75,-52.18C562.15,-63.92 557.32,-79.73 553.22,-93.13"/>
<polygon fill="#eec900" stroke="#eec900" points="549.84,-92.21 550.26,-102.8 556.53,-94.26 549.84,-92.21"/>
<text text-anchor="middle" x="589.5" y="-73.8" font-family="Times,serif" font-size="14.00" fill="darkgreen">TCP 443</text>
</g>
</g>
</svg>
