<?xml version="1.0" encoding="UTF-8" standalone="no"?>
<!DOCTYPE svg PUBLIC "-//W3C//DTD SVG 1.1//EN"
 "http://www.w3.org/Graphics/SVG/1.1/DTD/svg11.dtd">
<!-- Generated by graphviz version 2.43.0 (0)
 -->
<!-- Title: %3 Pages: 1 -->
<svg width="598pt" height="260pt"
 viewBox="0.00 0.00 598.00 260.00" xmlns="http://www.w3.org/2000/svg" xmlns:xlink="http://www.w3.org/1999/xlink">
<g id="graph0" class="graph" transform="scale(1 1) rotate(0) translate(4 256)">
<title>%3</title>
<polygon fill="white" stroke="transparent" points="-4,4 -4,-256 594,-256 594,4 -4,4"/>
<!-- node_2_ -->
<g id="node1" class="node">
<title>node_2_</title>
<g id="a_node1"><a xlink:title="New&#45;VM&#45;3">
<polygon fill="none" stroke="darkred" points="551.5,-90 432.5,-90 432.5,-54 551.5,-54 551.5,-90"/>
<text text-anchor="middle" x="492" y="-68.3" font-family="Times,serif" font-size="14.00" fill="darkgreen">VM:New&#45;VM&#45;3</text>
</a>
</g>
</g>
<!-- node_3_ -->
<g id="node2" class="node">
<title>node_3_</title>
<g id="a_node2"><a xlink:title="New&#45;VM&#45;4">
<polygon fill="none" stroke="darkred" points="551.5,-36 432.5,-36 432.5,0 551.5,0 551.5,-36"/>
<text text-anchor="middle" x="492" y="-14.3" font-family="Times,serif" font-size="14.00" fill="darkgreen">VM:New&#45;VM&#45;4</text>
</a>
</g>
</g>
<!-- node_4_ -->
<g id="node3" class="node">
<title>node_4_</title>
<g id="a_node3"><a xlink:title="T1&#45;192&#45;168&#45;1&#45;0">
<polygon fill="none" stroke="darkred" points="358,-171 167,-171 167,-135 358,-135 358,-171"/>
<text text-anchor="middle" x="262.5" y="-149.3" font-family="Times,serif" font-size="14.00" fill="darkgreen">segment:T1&#45;192&#45;168&#45;1&#45;0</text>
</a>
</g>
</g>
<!-- node_5_ -->
<g id="node4" class="node">
<title>node_5_</title>
<g id="a_node4"><a xlink:title="New&#45;VM&#45;1">
<polygon fill="none" stroke="darkred" points="551.5,-252 432.5,-252 432.5,-216 551.5,-216 551.5,-252"/>
<text text-anchor="middle" x="492" y="-230.3" font-family="Times,serif" font-size="14.00" fill="darkgreen">VM:New&#45;VM&#45;1</text>
</a>
</g>
</g>
<!-- node_4_&#45;&gt;node_5_ -->
<g id="edge5" class="edge">
<title>node_4_&#45;&gt;node_5_</title>
<path fill="none" stroke="darkblue" d="M303.58,-171.06C329.15,-182.21 363.17,-196.37 394,-207 403.23,-210.18 413.06,-213.26 422.77,-216.13"/>
<polygon fill="darkblue" stroke="darkblue" points="421.85,-219.51 432.43,-218.93 423.8,-212.78 421.85,-219.51"/>
</g>
<!-- node_6_ -->
<g id="node5" class="node">
<title>node_6_</title>
<g id="a_node5"><a xlink:title="New&#45;VM&#45;2">
<polygon fill="none" stroke="darkred" points="551.5,-198 432.5,-198 432.5,-162 551.5,-162 551.5,-198"/>
<text text-anchor="middle" x="492" y="-176.3" font-family="Times,serif" font-size="14.00" fill="darkgreen">VM:New&#45;VM&#45;2</text>
</a>
</g>
</g>
<!-- node_4_&#45;&gt;node_6_ -->
<g id="edge6" class="edge">
<title>node_4_&#45;&gt;node_6_</title>
<path fill="none" stroke="darkblue" d="M358,-164.22C379.52,-166.77 401.98,-169.43 422.18,-171.83"/>
<polygon fill="darkblue" stroke="darkblue" points="421.87,-175.32 432.22,-173.02 422.7,-168.37 421.87,-175.32"/>
</g>
<!-- node_7_ -->
<g id="node6" class="node">
<title>node_7_</title>
<g id="a_node6"><a xlink:title="New Virtual Machine">
<polygon fill="none" stroke="darkred" points="590,-144 394,-144 394,-108 590,-108 590,-144"/>
<text text-anchor="middle" x="492" y="-122.3" font-family="Times,serif" font-size="14.00" fill="darkgreen">VM:New Virtual Machine</text>
</a>
</g>
</g>
<!-- node_4_&#45;&gt;node_7_ -->
<g id="edge7" class="edge">
<title>node_4_&#45;&gt;node_7_</title>
<path fill="none" stroke="darkblue" d="M358,-141.78C366.52,-140.77 375.17,-139.75 383.78,-138.72"/>
<polygon fill="darkblue" stroke="darkblue" points="384.34,-142.18 393.86,-137.53 383.51,-135.23 384.34,-142.18"/>
</g>
<!-- node_0_ -->
<g id="node7" class="node">
<title>node_0_</title>
<g id="a_node7"><a xlink:title="T1&#45;workloads">
<polygon fill="none" stroke="darkred" points="131,-130 0,-130 0,-94 131,-94 131,-130"/>
<text text-anchor="middle" x="65.5" y="-108.3" font-family="Times,serif" font-size="14.00" fill="darkgreen">t1:T1&#45;workloads</text>
</a>
</g>
</g>
<!-- node_0_&#45;&gt;node_4_ -->
<g id="edge4" class="edge">
<title>node_0_&#45;&gt;node_4_</title>
<path fill="none" stroke="black" d="M131.16,-125.6C142.33,-127.94 154.16,-130.43 165.95,-132.91"/>
<polygon fill="black" stroke="black" points="165.32,-136.35 175.82,-134.99 166.76,-129.5 165.32,-136.35"/>
</g>
<!-- node_1_ -->
<g id="node8" class="node">
<title>node_1_</title>
<g id="a_node8"><a xlink:title="T1&#45;192&#45;168&#45;0&#45;0">
<polygon fill="none" stroke="darkred" points="358,-90 167,-90 167,-54 358,-54 358,-90"/>
<text text-anchor="middle" x="262.5" y="-68.3" font-family="Times,serif" font-size="14.00" fill="darkgreen">segment:T1&#45;192&#45;168&#45;0&#45;0</text>
</a>
</g>
</g>
<!-- node_0_&#45;&gt;node_1_ -->
<g id="edge1" class="edge">
<title>node_0_&#45;&gt;node_1_</title>
<path fill="none" stroke="black" d="M131.16,-98.74C141.6,-96.59 152.61,-94.34 163.63,-92.08"/>
<polygon fill="black" stroke="black" points="164.64,-95.44 173.73,-90 163.23,-88.59 164.64,-95.44"/>
</g>
<!-- node_1_&#45;&gt;node_2_ -->
<g id="edge2" class="edge">
<title>node_1_&#45;&gt;node_2_</title>
<path fill="none" stroke="darkblue" d="M358,-72C379.52,-72 401.98,-72 422.18,-72"/>
<polygon fill="darkblue" stroke="darkblue" points="422.22,-75.5 432.22,-72 422.22,-68.5 422.22,-75.5"/>
</g>
<!-- node_1_&#45;&gt;node_3_ -->
<g id="edge3" class="edge">
<title>node_1_&#45;&gt;node_3_</title>
<path fill="none" stroke="darkblue" d="M339.57,-53.94C366.37,-47.58 396.32,-40.47 422.46,-34.27"/>
<polygon fill="darkblue" stroke="darkblue" points="423.36,-37.65 432.28,-31.94 421.74,-30.84 423.36,-37.65"/>
</g>
</g>
</svg>
